# xmcd CD database file
#
# Track frame offsets:
#	150
#	14082
#	27121
#	43297
#	60018
#	74963
#	90122
#	104585
#	123806
#	138330
#	158449
#	173623
#	191352
#	209286
#	226259
#
# Disc length: 3202 seconds
#
# Revision: 0
# Processed by: cddbd v1.5.1PL2 Copyright (c) Steve Scherf et al.
# Submitted via: CDex 1.51
#
DISCID=bd0c800f
DTITLE=Various Artist - Classic Country - '80s Love Songs (disk 1)
DYEAR=2005
DGENRE=Country
TTITLE0=A Better Man/Clint Black
TTITLE1=Somebody's Knockin'/Terri Gibbs
TTITLE2=Bop/Dan Seals
TTITLE3=When You Say Nothing At All/Keith Whitley
TTITLE4=I Always Get Lucky With You/George Jones
TTITLE5=Eighteen Wheels And A Dozen Roses/Kathy Mattea
TTITLE6=Seven Year Ache/Rosanne Cash
TTITLE7=Lost In The Fifies Tonight (In The Still Of The Night)/Ronnie Milsap
TTITLE8=Mama He's Crazy/The Judds
TTITLE9=Angel Flying Too Close To The Ground/Willie Nelson
TTITLE10=Somebody Lied/Ricky Van Shelton
TTITLE11=Somebody Needin' Somebody/Conway Twitty
TTITLE12=You And I/Eddie Rabbitt with Crystal Gayle
TTITLE13=Lady/Kenny Rogers
TTITLE14=I Will Always Love You/Dolly Parton
EXTD=YEAR: 2005
EXTT0=
EXTT1=
EXTT2=
EXTT3=
EXTT4=
EXTT5=
EXTT6=
EXTT7=
EXTT8=
EXTT9=
EXTT10=
EXTT11=
EXTT12=
EXTT13=
EXTT14=
PLAYORDER=
